# xmcd
#
# Track frame offsets: 
#        150
#        9551
#        26829
#        46451
#        61833
#        73084
#        93938
#        108011
#        119723
#        130659
#        146357
#        165436
#        182298
#        199892
#
# Disc length: 2833 seconds
#
# Revision: 0
# Processed by: cddbd v1.5.2PL0 Copyright (c) Steve Scherf et al.
# Submitted via: ExactAudioCopy v0.99pb4
#
DISCID=b80b0f0e
DTITLE=2 Hungry Brothers - Table Manners
DYEAR=2008
DGENRE=Rap
TTITLE0=Intro of the Century (feat Fresh Daily and Nola Darling)
TTITLE1=Table Setting (feat Vast Aire, L.I.F.E. Long and Mariella)
TTITLE2=See You Thin (feat C-Rayz Walz)
TTITLE3=Sucka Pass! (feat Reef the Lost Cause)
TTITLE4=Breakfast (feat Fresh Daily)
TTITLE5=Good Money (feat Pumpkinhead, Gab Gacha, Soul Purpose, Creatur
TTITLE5=e and P. Casso)
TTITLE6=Cruise Control (feat Substantial)
TTITLE7=The Kids (feat Nola Darling)
TTITLE8=Over The Wall (feat Many Styles)
TTITLE9=Dr. Feelgood (feat Substantial)
TTITLE10=Swerve (feat Fresh Daily, Nola Darling and Homeboy Sandman)
TTITLE11=Around The Way (feat Alias)
TTITLE12=Keep It Honest (feat Skyzoo, John Robinson and Shabaam Sahdeeq)
TTITLE13=Do You Wanna Come Home (feat P. Casso)
EXTD=
EXTT0=
EXTT1=
EXTT2=
EXTT3=
EXTT4=
EXTT5=
EXTT6=
EXTT7=
EXTT8=
EXTT9=
EXTT10=
EXTT11=
EXTT12=
EXTT13=
PLAYORDER=
